<?xml version="1.0" encoding="UTF-8" standalone="no"?>
<!DOCTYPE svg PUBLIC "-//W3C//DTD SVG 20010904//EN"
              "http://www.w3.org/TR/2001/REC-SVG-20010904/DTD/svg10.dtd">

<svg xmlns="http://www.w3.org/2000/svg"
     width="6.02667in" height="8.22333in"
     viewBox="0 0 1808 2467">
  <path id="Imported Path"
        fill="none" stroke="black" stroke-width="1"
        d="M 981.07,172.94
           C 962.74,176.69 935.66,183.36 920.66,187.94
             891.92,197.53 823.18,231.70 816.10,240.03
             811.52,245.87 826.51,255.87 889.42,287.96
             889.42,287.96 922.75,305.46 922.75,305.46
             922.75,305.46 1033.56,273.37 1033.56,273.37
             1094.38,255.87 1148.54,241.70 1154.37,241.70
             1175.62,241.70 1191.45,262.95 1178.12,274.20
             1173.12,277.95 1063.55,311.71 1003.15,327.54
             969.82,336.30 965.66,331.71 1056.06,380.47
             1056.06,380.47 1122.71,415.89 1122.71,415.89
             1122.71,415.89 1164.37,404.22 1164.37,404.22
             1281.85,371.30 1330.17,358.38 1338.50,358.38
             1359.33,358.38 1374.33,380.05 1361.42,390.89
             1358.50,392.97 1315.59,406.72 1266.43,420.89
             1217.28,435.06 1176.45,447.56 1175.62,447.98
             1174.78,448.81 1193.53,460.06 1217.28,473.40
             1241.02,486.32 1273.10,504.23 1288.93,513.40
             1288.93,513.40 1317.67,529.24 1317.67,529.24
             1317.67,529.24 1343.09,522.99 1343.09,522.99
             1356.83,519.65 1389.33,510.90 1414.74,503.40
             1466.40,489.23 1480.56,489.65 1488.06,506.74
             1495.56,522.57 1487.23,527.57 1425.57,545.07
             1425.57,545.07 1370.16,560.91 1370.16,560.91
             1370.16,560.91 1402.66,578.83 1402.66,578.83
             1441.40,600.50 1449.73,607.58 1449.73,616.75
             1449.73,625.08 1436.82,637.59 1428.49,637.59
             1425.15,637.59 1389.74,620.08 1349.75,598.41
             1309.76,576.74 1276.43,559.24 1276.43,559.66
             1275.18,560.91 1294.76,691.76 1297.68,703.01
             1300.18,713.43 1290.18,725.10 1278.93,725.10
             1265.18,725.10 1258.52,708.01 1249.35,648.00
             1244.77,615.92 1238.52,576.74 1236.02,560.49
             1236.02,560.49 1231.02,531.32 1231.02,531.32
             1231.02,531.32 1193.53,510.49 1193.53,510.49
             1172.70,498.82 1141.04,480.90 1123.13,470.90
             1123.13,470.90 1090.22,452.98 1090.22,452.98
             1090.22,452.98 1092.72,466.73 1092.72,466.73
             1094.38,474.23 1101.46,520.49 1108.55,569.66
             1121.88,663.01 1121.46,670.92 1103.96,670.92
             1085.63,670.92 1080.63,650.09 1055.64,480.06
             1055.64,480.06 1048.14,428.81 1048.14,428.81
             1048.14,428.81 1021.06,412.97 1021.06,412.97
             972.32,384.64 910.67,350.46 909.83,351.30
             909.42,351.71 914.41,385.89 921.08,427.14
             935.66,515.49 935.24,526.74 920.66,528.40
             903.17,530.49 896.08,511.74 879.42,415.06
             879.42,415.06 864.01,327.13 864.01,327.13
             864.01,327.13 824.43,305.46 824.43,305.46
             802.77,293.37 783.61,283.37 781.94,283.37
             779.86,283.37 779.44,298.79 780.69,317.54
             789.85,438.81 824.43,521.32 902.75,609.25
             987.32,704.68 1101.88,767.19 1243.52,794.69
             1301.01,805.94 1413.07,805.11 1472.65,793.02
             1514.72,784.27 1599.71,758.85 1618.04,749.27
             1626.78,744.68 1625.95,736.77 1611.79,662.59
             1569.29,445.48 1438.90,281.70 1245.60,202.11
             1170.62,171.69 1056.47,159.19 981.07,172.94 Z
           M 713.62,94.60
           C 672.38,162.52 647.38,223.78 632.80,292.96
             624.47,332.13 623.64,347.96 623.64,487.57
             623.22,650.50 624.47,665.09 654.05,828.86
             672.38,931.38 679.87,1002.64 681.96,1091.81
             684.04,1168.49 682.79,1190.58 675.29,1243.92
             665.71,1312.68 647.80,1386.44 631.13,1426.44
             624.88,1440.61 619.05,1455.61 617.80,1460.20
             615.72,1466.86 613.22,1467.28 598.22,1464.36
             588.64,1462.28 546.57,1460.61 504.07,1460.61
             504.07,1460.61 427.00,1461.03 427.00,1461.03
             427.00,1461.03 381.18,1476.45 381.18,1476.45
             237.87,1525.62 139.56,1629.39 98.73,1774.41
             91.23,1802.33 89.98,1817.33 89.98,1887.76
             89.98,1964.43 90.82,1971.10 101.65,2006.10
             140.81,2135.29 234.96,2239.47 354.93,2287.39
             414.51,2311.56 453.67,2318.65 520.74,2318.23
             571.98,2318.23 587.39,2316.15 622.80,2306.98
             666.96,2295.31 709.87,2276.97 746.11,2253.64
             778.61,2232.80 826.93,2189.46 844.43,2165.71
             844.43,2165.71 859.42,2145.29 859.42,2145.29
             859.42,2145.29 837.76,2101.12 837.76,2101.12
             806.52,2035.69 795.27,1987.77 792.77,1909.84
             789.44,1815.25 804.44,1742.74 841.93,1670.23
             853.59,1648.14 858.18,1635.64 856.09,1629.39
             851.93,1616.89 803.19,1566.04 774.02,1543.96
             760.69,1533.96 735.70,1518.12 719.03,1508.54
             719.03,1508.54 688.21,1491.87 688.21,1491.87
             688.21,1491.87 700.29,1460.20 700.29,1460.20
             739.45,1358.52 758.19,1246.00 758.19,1113.90
             758.19,1025.56 751.94,962.21 729.45,825.11
             710.70,709.26 702.37,646.75 704.45,635.50
             705.70,629.67 710.29,633.00 723.20,650.50
             732.78,663.01 777.77,708.85 823.18,752.18
             922.75,847.61 964.82,890.95 1002.73,937.63
             1126.46,1089.73 1203.11,1249.75 1234.36,1421.86
             1237.69,1439.78 1239.35,1455.20 1238.11,1456.45
             1236.86,1457.70 1230.19,1458.53 1223.11,1458.53
             1216.03,1458.53 1194.36,1462.28 1175.20,1466.86
             1007.73,1507.29 889.42,1631.05 854.01,1804.83
             832.35,1908.59 855.68,2030.69 914.41,2121.54
             1033.14,2305.31 1281.43,2372.40 1478.06,2273.64
             1661.78,2181.13 1755.51,1972.77 1703.02,1773.16
             1679.27,1681.89 1618.45,1593.97 1537.22,1533.12
             1488.06,1496.45 1408.07,1465.61 1348.50,1459.78
             1333.09,1458.53 1319.76,1456.03 1318.92,1454.78
             1318.09,1453.53 1314.34,1434.36 1310.59,1412.69
             1300.18,1353.10 1281.85,1286.42 1257.68,1222.25
             1187.70,1034.72 1070.22,872.20 886.09,707.18
             784.02,615.50 736.53,555.91 713.62,490.90
             704.45,465.48 702.37,450.89 700.70,403.39
             698.62,342.96 704.04,303.37 721.53,252.12
             730.28,225.86 767.78,148.77 784.86,121.27
             794.44,106.26 794.85,104.60 788.19,98.76
             781.11,92.93 736.53,66.68 732.78,66.68
             731.95,66.68 723.20,79.18 713.62,94.60 Z
           M 505.74,1600.63
           C 517.82,1606.05 529.07,1626.89 526.15,1637.72
             521.99,1653.97 505.74,1663.14 475.75,1666.89
             405.76,1676.06 337.02,1722.73 304.53,1783.99
             289.53,1811.91 274.95,1864.42 274.95,1890.67
             274.95,1913.18 265.78,1928.18 249.95,1931.51
             221.63,1937.76 205.80,1911.51 210.38,1867.34
             214.54,1827.75 229.12,1781.49 247.45,1748.15
             268.70,1709.81 325.77,1652.72 362.43,1632.72
             416.17,1603.55 480.33,1588.96 505.74,1600.63 Z
           M 1081.05,1719.40
           C 1094.80,1726.07 1108.13,1746.49 1108.13,1761.49
             1108.13,1773.99 1093.13,1794.41 1079.38,1799.83
             1061.05,1807.74 1039.81,1802.33 1027.31,1787.32
             1009.40,1766.07 1016.06,1732.73 1040.64,1719.40
             1055.22,1711.06 1063.97,1711.06 1081.05,1719.40 Z" />
</svg>
