<?xml version="1.0" standalone="no"?>
<!DOCTYPE svg PUBLIC "-//W3C//DTD SVG 20010904//EN"
 "http://www.w3.org/TR/2001/REC-SVG-20010904/DTD/svg10.dtd">
<svg version="1.0" xmlns="http://www.w3.org/2000/svg"
 width="434.000000pt" height="592.000000pt" viewBox="0 0 434.000000 592.000000"
 preserveAspectRatio="xMidYMid meet">
<metadata>
Created by potrace 1.16, written by Peter Selinger 2001-2019
</metadata>
<g transform="translate(0.000000,592.000000) scale(0.100000,-0.100000)"
fill="#000000" stroke="none">
<path d="M1713 5693 c-99 -163 -159 -310 -194 -476 -20 -94 -22 -132 -22 -467
-1 -391 2 -426 73 -819 44 -246 62 -417 67 -631 5 -184 2 -237 -16 -365 -23
-165 -66 -342 -106 -438 -15 -34 -29 -70 -32 -81 -5 -16 -11 -17 -47 -10 -23
5 -124 9 -226 9 l-185 -1 -110 -37 c-344 -118 -580 -367 -678 -715 -18 -67
-21 -103 -21 -272 0 -184 2 -200 28 -284 94 -310 320 -560 608 -675 143 -58
237 -75 398 -74 123 0 160 5 245 27 106 28 209 72 296 128 78 50 194 154 236
211 l36 49 -52 106 c-75 157 -102 272 -108 459 -8 227 28 401 118 575 28 53
39 83 34 98 -10 30 -127 152 -197 205 -32 24 -92 62 -132 85 l-74 40 29 76
c94 244 139 514 139 831 0 212 -15 364 -69 693 -45 278 -65 428 -60 455 3 14
14 6 45 -36 23 -30 131 -140 240 -244 239 -229 340 -333 431 -445 297 -365
481 -749 556 -1162 8 -43 12 -80 9 -83 -3 -3 -19 -5 -36 -5 -17 0 -69 -9 -115
-20 -402 -97 -686 -394 -771 -811 -52 -249 4 -542 145 -760 285 -441 881 -602
1353 -365 441 222 666 722 540 1201 -57 219 -203 430 -398 576 -118 88 -310
162 -453 176 -37 3 -69 9 -71 12 -2 3 -11 49 -20 101 -25 143 -69 303 -127
457 -168 450 -450 840 -892 1236 -245 220 -359 363 -414 519 -22 61 -27 96
-31 210 -5 145 8 240 50 363 21 63 111 248 152 314 23 36 24 40 8 54 -17 14
-124 77 -133 77 -2 0 -23 -30 -46 -67z m-499 -3614 c29 -13 56 -63 49 -89 -10
-39 -49 -61 -121 -70 -168 -22 -333 -134 -411 -281 -36 -67 -71 -193 -71 -256
0 -54 -22 -90 -60 -98 -68 -15 -106 48 -95 154 10 95 45 206 89 286 51 92 188
229 276 277 129 70 283 105 344 77z m1381 -285 c33 -16 65 -65 65 -101 0 -30
-36 -79 -69 -92 -44 -19 -95 -6 -125 30 -43 51 -27 131 32 163 35 20 56 20 97
0z"/>
<path d="M2355 5505 c-44 -9 -109 -25 -145 -36 -69 -23 -234 -105 -251 -125
-11 -14 25 -38 176 -115 l80 -42 266 77 c146 42 276 76 290 76 51 0 89 -51 57
-78 -12 -9 -275 -90 -420 -128 -80 -21 -90 -10 127 -127 l160 -85 100 28 c282
79 398 110 418 110 50 0 86 -52 55 -78 -7 -5 -110 -38 -228 -72 -118 -34 -216
-64 -218 -65 -2 -2 43 -29 100 -61 57 -31 134 -74 172 -96 l69 -38 61 15 c33
8 111 29 172 47 124 34 158 33 176 -8 18 -38 -2 -50 -150 -92 l-133 -38 78
-43 c93 -52 113 -69 113 -91 0 -20 -31 -50 -51 -50 -8 0 -93 42 -189 94 -96
52 -176 94 -176 93 -3 -3 44 -317 51 -344 6 -25 -18 -53 -45 -53 -33 0 -49 41
-71 185 -11 77 -26 171 -32 210 l-12 70 -90 50 c-50 28 -126 71 -169 95 l-79
43 6 -33 c4 -18 21 -129 38 -247 32 -224 31 -243 -11 -243 -44 0 -56 50 -116
458 l-18 123 -65 38 c-117 68 -265 150 -267 148 -1 -1 11 -83 27 -182 35 -212
34 -239 -1 -243 -42 -5 -59 40 -99 272 l-37 211 -95 52 c-52 29 -98 53 -102
53 -5 0 -6 -37 -3 -82 22 -291 105 -489 293 -700 203 -229 478 -379 818 -445
138 -27 407 -25 550 4 101 21 305 82 349 105 21 11 19 30 -15 208 -102 521
-415 914 -879 1105 -180 73 -454 103 -635 70z"/>
</g>
</svg>
